<svg xmlns="http://www.w3.org/2000/svg" viewBox="0 0 256 256" role="img" aria-labelledby="title desc">
  <title id="title">BitFlow favicon</title>
  <desc id="desc">A bitcoin coin combined with weather radar arcs.</desc>
  <rect width="256" height="256" rx="60" fill="#f5f5f0" />
  <rect x="9" y="9" width="238" height="238" rx="51" fill="none" stroke="#1a1a1a" stroke-opacity="0.14" stroke-width="6" />

  <g fill="none" stroke="#1a1a1a" stroke-linecap="round">
    <path d="M180 72a30 30 0 0 1 30 30" stroke-width="10" stroke-opacity="0.46" />
    <path d="M180 48a54 54 0 0 1 54 54" stroke-width="10" stroke-opacity="0.28" />
    <path d="M180 24a78 78 0 0 1 78 78" stroke-width="10" stroke-opacity="0.16" />
  </g>

  <path
    d="M180 102L232 36a78 78 0 0 1 19 55l-71 11Z"
    fill="#6eb7aa"
    fill-opacity="0.78"
  />
  <circle cx="236" cy="40" r="11" fill="#6eb7aa" />
  <circle cx="180" cy="102" r="9" fill="#1a1a1a" fill-opacity="0.7" />

  <g transform="translate(34 80)">
    <circle cx="72" cy="74" r="66" fill="#f7931a" />
    <circle cx="72" cy="74" r="66" fill="none" stroke="#1a1a1a" stroke-width="8" stroke-opacity="0.14" />

    <g fill="#1a1a1a">
      <rect x="54" y="20" width="8" height="108" rx="4" />
      <rect x="86" y="20" width="8" height="108" rx="4" />
      <path d="M64 32h34c16 0 28 10 28 23 0 10-6 18-16 22 12 4 20 13 20 27 0 19-14 32-35 32H64V32Zm18 18v20h11c8 0 14-4 14-10 0-6-6-10-14-10H82Zm0 38v22h14c10 0 16-4 16-11 0-7-6-11-16-11H82Z" />
    </g>
  </g>
</svg>
